<?xml version="1.0" encoding="utf-8"?>
<!-- Generator: Adobe Illustrator 16.0.0, SVG Export Plug-In . SVG Version: 6.00 Build 0)  -->
<!DOCTYPE svg PUBLIC "-//W3C//DTD SVG 1.1//EN" "http://www.w3.org/Graphics/SVG/1.1/DTD/svg11.dtd">
<svg version="1.1" id="Layer_1" xmlns="http://www.w3.org/2000/svg" xmlns:xlink="http://www.w3.org/1999/xlink" x="0px" y="0px"
	 width="118.242px" height="131.057px" viewBox="0 0 118.242 131.057" enable-background="new 0 0 118.242 131.057"
	 xml:space="preserve">
<g>
	<path fill="none" stroke="#00FF00" stroke-width="5" stroke-linecap="round" stroke-miterlimit="10" d="M103.746,42.236
		c0,6.166-5,11.166-11.167,11.166s-11.167-5-11.167-11.166"/>
	<path fill="none" stroke="#00FF00" stroke-width="5" stroke-linecap="round" stroke-miterlimit="10" d="M81.911,42.236
		c0,6.166-5,11.166-11.167,11.166s-11.166-5-11.166-11.166"/>
	<path fill="none" stroke="#00FF00" stroke-width="5" stroke-linecap="round" stroke-miterlimit="10" d="M58.871,42.236
		c0,6.166-5,11.166-11.167,11.166s-11.166-5-11.166-11.166"/>
	<path fill="none" stroke="#00FF00" stroke-width="5" stroke-linecap="round" stroke-miterlimit="10" d="M37.036,42.057
		c0,6.166-4.999,11.166-11.166,11.166s-11.167-5-11.167-11.166"/>
	
		<line fill="none" stroke="#00FF00" stroke-width="5" stroke-linecap="round" stroke-miterlimit="10" x1="14.202" y1="61.226" x2="104.48" y2="61.226"/>
	
		<line fill="none" stroke="#00FF00" stroke-width="5" stroke-linecap="round" stroke-miterlimit="10" x1="14.202" y1="68.226" x2="104.48" y2="68.226"/>
	<path fill="none" stroke="#00FF00" stroke-width="5" stroke-linecap="round" stroke-miterlimit="10" d="M14.703,87.879
		c0-6.166,4.999-11.166,11.166-11.166s11.167,5,11.167,11.166"/>
	<path fill="none" stroke="#00FF00" stroke-width="5" stroke-linecap="round" stroke-miterlimit="10" d="M36.538,87.879
		c0-6.166,4.999-11.166,11.166-11.166s11.167,5,11.167,11.166"/>
	<path fill="none" stroke="#00FF00" stroke-width="5" stroke-linecap="round" stroke-miterlimit="10" d="M59.578,87.879
		c0-6.166,4.999-11.166,11.166-11.166s11.167,5,11.167,11.166"/>
	<path fill="none" stroke="#00FF00" stroke-width="5" stroke-linecap="round" stroke-miterlimit="10" d="M81.412,88.057
		c0-6.166,5-11.166,11.168-11.166c6.167,0,11.166,5,11.166,11.166"/>
	
		<line fill="none" stroke="#00FF00" stroke-width="5" stroke-linecap="round" stroke-miterlimit="10" x1="103.993" y1="42.057" x2="114.969" y2="42.057"/>
	
		<line fill="none" stroke="#00FF00" stroke-width="5" stroke-linecap="round" stroke-miterlimit="10" x1="3.227" y1="42.057" x2="14.202" y2="42.057"/>
	
		<line fill="none" stroke="#00FF00" stroke-width="5" stroke-linecap="round" stroke-miterlimit="10" x1="103.767" y1="89.058" x2="114.742" y2="89.058"/>
	
		<line fill="none" stroke="#00FF00" stroke-width="5" stroke-linecap="round" stroke-miterlimit="10" x1="3" y1="89.058" x2="13.976" y2="89.058"/>
	
		<line fill="none" stroke="#00FF00" stroke-width="5" stroke-linecap="round" stroke-miterlimit="10" x1="115.742" y1="41.5" x2="115.742" y2="2.5"/>
	
		<line fill="none" stroke="#00FF00" stroke-width="5" stroke-linecap="round" stroke-miterlimit="10" x1="3" y1="41.5" x2="3" y2="2.5"/>
	
		<line fill="none" stroke="#00FF00" stroke-width="5" stroke-linecap="round" stroke-miterlimit="10" x1="115.242" y1="128.557" x2="115.242" y2="89.557"/>
	
		<line fill="none" stroke="#00FF00" stroke-width="5" stroke-linecap="round" stroke-miterlimit="10" x1="2.5" y1="128.557" x2="2.5" y2="89.557"/>
</g>
</svg>
