<?xml version="1.0" encoding="utf-8"?>
<!-- Generator: Adobe Illustrator 16.0.3, SVG Export Plug-In . SVG Version: 6.00 Build 0)  -->
<!DOCTYPE svg PUBLIC "-//W3C//DTD SVG 1.1//EN" "http://www.w3.org/Graphics/SVG/1.1/DTD/svg11.dtd">
<svg version="1.1" id="Layer_1" xmlns="http://www.w3.org/2000/svg" xmlns:xlink="http://www.w3.org/1999/xlink" x="0px" y="0px"
	 width="18px" height="18px" viewBox="0 0 18 18" enable-background="new 0 0 18 18" xml:space="preserve">
<g>
	<g>
		<g enable-background="new    ">
			<g enable-background="new    ">
				<defs>
					<path id="SVGID_153_" enable-background="new    " d="M9.081,7.31c0-2.761,0-5,0-5c3.699,0,6.696,2.997,6.696,6.687
						c0,3.699-2.997,6.696-6.696,6.696c-3.69,0-6.688-2.997-6.688-6.696c0-3.689,2.997-6.687,6.688-6.687
						C9.081,2.31,9.081,4.549,9.081,7.31C8.158,7.305,7.389,8.074,7.394,8.996c-0.003,0.935,0.767,1.701,1.688,1.696
						c0.933,0.003,1.699-0.764,1.696-1.696C10.782,8.076,10.015,7.307,9.081,7.31z"/>
				</defs>
				<clipPath id="SVGID_2_">
					<use xlink:href="#SVGID_153_"  overflow="visible"/>
				</clipPath>
				<g clip-path="url(#SVGID_2_)" enable-background="new    ">
					<path fill="#4A495E" d="M9.081,7.31c0-2.761,0-5,0-5c3.699,0,6.696,2.997,6.696,6.687c0,3.699-2.997,6.696-6.696,6.696
						c-3.69,0-6.688-2.997-6.688-6.696c0-3.689,2.997-6.687,6.688-6.687C9.081,2.31,9.081,4.549,9.081,7.31
						C8.158,7.305,7.389,8.074,7.394,8.996c-0.003,0.935,0.767,1.701,1.688,1.696c0.933,0.003,1.699-0.764,1.696-1.696
						C10.782,8.076,10.015,7.307,9.081,7.31"/>
					<path fill="#4A495E" d="M9.081,6.291c-0.035,0.118-0.212,0.227-0.216,0.35C8.862,6.768,8.98,6.927,9.081,7.004
						c0,0.102,0,0.203,0,0.306C8.158,7.305,7.389,8.074,7.394,8.996c-0.003,0.935,0.767,1.701,1.688,1.696
						c0.933,0.003,1.699-0.764,1.696-1.696c0.005-0.92-0.763-1.689-1.696-1.687c0-0.103,0-0.204,0-0.306
						C9.13,7.011,9.195,7.02,9.243,7.026c1.054,0.358,1.592,0.967,1.802,2.033c0.088,0.446,0.362,0.518,0.364,0.518
						c0.406,0.029,1.344-1.094,0.814-2.339C11.398,5.297,9.244,5.958,9.081,6.291c0-2.272,0-3.981,0-3.981
						c3.699,0,6.696,2.997,6.696,6.687c0,3.699-2.997,6.696-6.696,6.696c-3.69,0-6.688-2.997-6.688-6.696
						c0-3.689,2.997-6.687,6.688-6.687C9.081,2.31,9.081,4.019,9.081,6.291"/>
					<path fill="#272B44" d="M9.081,6.065c-0.159,0.321-0.813,0.571-0.486,0.96C8.726,7.181,8.922,7.11,9.081,7.166
						c0,0.048,0,0.096,0,0.144C8.158,7.305,7.389,8.074,7.394,8.996c-0.003,0.935,0.767,1.701,1.688,1.696
						c0.933,0.003,1.699-0.764,1.696-1.696c0.005-0.92-0.763-1.689-1.696-1.687c0-0.048,0-0.096,0-0.144
						C9.126,7.17,9.186,7.176,9.23,7.18c1.628,0.383,1.673,1.733,1.689,2.242c0.004,0.115-0.039,0.293,0.033,0.383
						c0.355,0.435,1.488-0.391,1.634-1.607C12.924,5.381,9.4,5.423,9.081,6.065c0-2.159,0-3.756,0-3.756
						c3.699,0,6.696,2.997,6.696,6.687c0,3.699-2.997,6.696-6.696,6.696c-3.69,0-6.688-2.997-6.688-6.696
						c0-3.689,2.997-6.687,6.688-6.687C9.081,2.31,9.081,3.906,9.081,6.065"/>
					<path fill="#272B44" d="M9.081,5.786C9.041,5.859,8.919,5.892,8.85,5.938C8.594,6.104,8.594,6.104,7.535,8.251
						C7.334,8.66,7.373,9.067,7.388,9.221c0.087,0.903,1.051,1.728,2.163,1.437l2.223-0.688c0.637-0.408,0.903-1.005,1.098-1.439
						c0.445-0.995,0.182-2.39-1.028-2.999C10.643,4.927,9.165,5.631,9.081,5.786c0-2.017,0-3.477,0-3.477
						c3.699,0,6.696,2.997,6.696,6.687c0,3.699-2.997,6.696-6.696,6.696c-3.69,0-6.688-2.997-6.688-6.696
						c0-3.689,2.997-6.687,6.688-6.687C9.081,2.31,9.081,3.77,9.081,5.786"/>
					<path fill="#272B44" d="M9.081,5.349C8.987,5.53,8.779,5.568,8.643,5.695c-0.411,0.385-0.68,0.781-0.924,1.37
						C7.348,7.956,6.998,8.798,7.315,9.592c0.787,1.966,3.014,1.24,3.853,0.967c2.736-0.893,3.351-4.177,1.026-5.49
						C10.548,4.138,9.089,5.333,9.081,5.349c0-1.786,0-3.039,0-3.039c3.699,0,6.696,2.997,6.696,6.687
						c0,3.699-2.997,6.696-6.696,6.696c-3.69,0-6.688-2.997-6.688-6.696c0-3.689,2.997-6.687,6.688-6.687
						C9.081,2.31,9.081,3.563,9.081,5.349"/>
					<path fill="#272B44" d="M9.081,4.718C8.926,5.012,8.582,5.09,8.378,5.328c-0.39,0.456-0.561,0.777-0.685,1.011
						C7.558,6.595,7.517,6.672,7.347,7.109C6.785,8.554,7.055,9.315,7.169,9.641c0.482,1.365,2.126,1.867,4.09,1.248
						c4.083-1.287,3.215-5.218,0.938-6.355C10.607,3.738,9.12,4.644,9.081,4.718c0-1.444,0-2.408,0-2.408
						c3.699,0,6.696,2.997,6.696,6.687c0,3.699-2.997,6.696-6.696,6.696c-3.69,0-6.688-2.997-6.688-6.696
						c0-3.689,2.997-6.687,6.688-6.687C9.081,2.31,9.081,3.273,9.081,4.718"/>
					<path fill="#272B44" d="M9.081,4.164C9.053,4.213,8.967,4.229,8.917,4.257c-1.092,0.619-1.583,1.816-1.745,2.21
						c-0.36,0.881-0.588,2.162-0.281,3.04c0.865,2.483,3.784,1.954,4.658,1.733c3.902-0.989,3.67-5.329,1.201-6.876
						C10.796,3.141,9.09,4.148,9.081,4.164c0-1.131,0-1.854,0-1.854c3.699,0,6.696,2.997,6.696,6.687
						c0,3.699-2.997,6.696-6.696,6.696c-3.69,0-6.688-2.997-6.688-6.696c0-3.689,2.997-6.687,6.688-6.687
						C9.081,2.31,9.081,3.033,9.081,4.164"/>
					<path fill="#272B44" d="M9.081,3.66C9.037,3.729,8.909,3.744,8.835,3.779c-0.303,0.147-1.339,0.745-1.971,2.27
						c-0.229,0.555-0.712,2.007-0.23,3.517c0.644,2.018,3.006,2.589,5.006,2.111c4.046-0.967,4.312-5.602,1.326-7.585
						C10.898,2.719,9.091,3.646,9.081,3.66c0-0.838,0-1.351,0-1.351c3.699,0,6.696,2.997,6.696,6.687
						c0,3.699-2.997,6.696-6.696,6.696c-3.69,0-6.688-2.997-6.688-6.696c0-3.689,2.997-6.687,6.688-6.687
						C9.081,2.31,9.081,2.822,9.081,3.66"/>
					<path fill="#272B44" d="M9.081,3.191C9.015,3.29,8.824,3.297,8.714,3.342C8.488,3.434,7.324,3.978,6.568,5.62
						C6.311,6.18,5.764,7.664,6.237,9.371c0.653,2.351,3.176,3.173,5.331,2.771c4.542-0.848,4.813-6.13,1.421-8.354
						C10.881,2.406,9.09,3.178,9.081,3.191c0-0.557,0-0.882,0-0.882c3.699,0,6.696,2.997,6.696,6.687
						c0,3.699-2.997,6.696-6.696,6.696c-3.69,0-6.688-2.997-6.688-6.696c0-3.689,2.997-6.687,6.688-6.687
						C9.081,2.31,9.081,2.635,9.081,3.191"/>
					<path fill="#272B44" d="M9.081,2.77C9.033,2.833,8.902,2.821,8.825,2.844c-0.484,0.14-1.704,0.649-2.575,2.35
						C6.028,5.627,5.34,7.194,5.809,9.158c0.666,2.785,3.384,3.749,5.627,3.467c4.931-0.622,5.372-6.185,1.787-8.858
						C11.015,2.119,9.091,2.756,9.081,2.77c0-0.296,0-0.46,0-0.46c3.699,0,6.696,2.997,6.696,6.687c0,3.699-2.997,6.696-6.696,6.696
						c-3.69,0-6.688-2.997-6.688-6.696c0-3.689,2.997-6.687,6.688-6.687C9.081,2.31,9.081,2.474,9.081,2.77"/>
					<path fill="#272B44" d="M9.081,2.44C9.018,2.516,8.854,2.479,8.757,2.496C8.091,2.61,6.829,3.063,5.858,4.805
						c-0.31,0.557-0.979,2.09-0.495,4.307c0.562,2.573,3.163,4.303,6.053,4.024c2.513-0.242,4.801-1.996,4.248-5.37
						c0.074,0.399,0.113,0.811,0.113,1.23c0,3.699-2.997,6.696-6.696,6.696c-3.69,0-6.688-2.997-6.688-6.696
						c0-3.689,2.997-6.687,6.688-6.687C9.081,2.31,9.081,2.354,9.081,2.44"/>
					<path fill="#272B44" d="M8.419,2.347c-4.414,0.654-5.25,7.343-1.278,10.225c2.683,1.946,7.554,1.742,8.492-2.183
						c-0.641,3.03-3.33,5.304-6.552,5.304c-3.69,0-6.688-2.997-6.688-6.696c0-3.594,2.844-6.531,6.402-6.681
						C8.683,2.325,8.531,2.334,8.419,2.347"/>
					<path fill="#5A576A" d="M11.273,9.105c-0.053-0.071-0.131-0.199-0.201-0.402c-0.124-0.368-0.315-0.708-0.537-0.96
						C10.291,7.468,9.998,7.241,9.664,7.07C9.498,6.985,9.085,6.633,9.085,6.631c-0.001-0.005,0.294-0.53,1.135-0.577
						c0.284-0.017,0.88,0.129,1.257,0.443c0.666,0.557,0.735,1.216,0.729,1.662c-0.009,0.602-0.521,1.202-0.769,1.136
						C11.365,9.275,11.318,9.166,11.273,9.105"/>
					<path fill="#666274" d="M11.36,8.884c-0.269-0.377-0.442-0.813-0.745-1.168c-0.19-0.224-0.391-0.384-0.428-0.414
						c-0.704-0.552-0.72-0.639-0.72-0.64c-0.033-0.368,1.046-0.783,1.902-0.055c0.641,0.545,0.697,1.208,0.702,1.336
						c0.021,0.562-0.31,1.137-0.61,1.061C11.416,8.992,11.389,8.922,11.36,8.884"/>
					<path fill="#706D7E" d="M11.388,8.655c-0.243-0.326-0.44-0.685-0.705-0.996c-0.05-0.058-0.1-0.115-0.153-0.17
						c-0.034-0.035-0.078-0.082-0.113-0.116c-0.043-0.042-0.099-0.099-0.144-0.138c-0.218-0.19-0.532-0.494-0.534-0.513
						c-0.012-0.1,0.074-0.235,0.152-0.298c0.006-0.004,0.656-0.313,1.401,0.265c0.496,0.385,0.681,1.017,0.649,1.323
						c-0.058,0.564-0.222,0.797-0.501,0.71C11.416,8.715,11.402,8.676,11.388,8.655"/>
					<path fill="#7A7786" d="M11.391,8.442c-0.006-0.002-0.009-0.011-0.012-0.015c-0.166-0.224-0.328-0.449-0.495-0.671
						c-0.037-0.049-0.09-0.111-0.13-0.158c-0.039-0.046-0.092-0.108-0.134-0.152c-0.043-0.045-0.098-0.106-0.141-0.15
						c-0.008-0.008-0.019-0.018-0.026-0.025l-0.436-0.446c-0.02-0.098,0.038-0.249,0.117-0.31c0.004-0.003,0.563-0.219,1.254,0.419
						c0.02,0.019,0.487,0.458,0.401,1.109c-0.006,0.047-0.063,0.315-0.078,0.328C11.638,8.436,11.483,8.475,11.391,8.442"/>
					<path fill="#84818F" d="M11.609,8.107c-0.097,0.007-0.235,0.051-0.323,0.01c-0.085-0.039-0.134-0.171-0.19-0.244
						c-0.039-0.052-0.092-0.12-0.135-0.17c-0.041-0.049-0.092-0.116-0.135-0.164s-0.097-0.113-0.14-0.16
						c-0.007-0.009-0.018-0.02-0.025-0.027c-0.037-0.039-0.083-0.093-0.119-0.132c-0.045-0.049-0.103-0.115-0.149-0.162
						c-0.023-0.022-0.066-0.048-0.075-0.079c-0.026-0.101-0.011-0.277,0.073-0.339c0.016-0.012,0.596,0.009,0.939,0.412
						c0.449,0.527,0.308,1.043,0.305,1.047C11.63,8.105,11.617,8.106,11.609,8.107"/>
					<path fill="#272B44" d="M11.015,2.595C10.319,2.426,9.902,2.355,9.081,2.44c0-0.086,0-0.131,0-0.131
						c0.809,0,1.584,0.143,2.302,0.405C11.272,2.679,11.126,2.627,11.015,2.595"/>
					<path fill="#8D8A97" d="M11.251,7.737c-0.074-0.026-0.272-0.096-0.429-0.348c-0.023-0.037-0.065-0.084-0.076-0.128
						c-0.051-0.208-0.098-0.404-0.061-0.433c0.041-0.029,0.397,0.166,0.529,0.322c0.296,0.348,0.281,0.63,0.28,0.631
						C11.441,7.834,11.321,7.762,11.251,7.737"/>
				</g>
			</g>
			<g>
				<path fill="#272B44" d="M9.081,7.31c0.934-0.003,1.701,0.767,1.696,1.687c0.003,0.933-0.764,1.699-1.696,1.696
					c-0.921,0.005-1.69-0.762-1.688-1.696C7.389,8.074,8.158,7.305,9.081,7.31z"/>
			</g>
		</g>
	</g>
</g>
</svg>
