<?xml version="1.0" encoding="utf-8"?>
<!-- Generator: Adobe Illustrator 16.0.3, SVG Export Plug-In . SVG Version: 6.00 Build 0)  -->
<!DOCTYPE svg PUBLIC "-//W3C//DTD SVG 1.1//EN" "http://www.w3.org/Graphics/SVG/1.1/DTD/svg11.dtd">
<svg version="1.1" id="Layer_1" xmlns="http://www.w3.org/2000/svg" xmlns:xlink="http://www.w3.org/1999/xlink" x="0px" y="0px"
	 width="18px" height="18px" viewBox="0 0 18 18" enable-background="new 0 0 18 18" xml:space="preserve">
<g>
	<g>
		<g enable-background="new    ">
			<g enable-background="new    ">
				<defs>
					<path id="SVGID_151_" enable-background="new    " d="M8.767,7.31c0-2.761,0-5,0-5c3.689,0,6.687,2.997,6.687,6.687
						c0,3.699-2.997,6.696-6.687,6.696c-3.699,0-6.696-2.997-6.696-6.696c0-3.689,2.997-6.687,6.696-6.687
						C8.767,2.31,8.767,4.549,8.767,7.31C7.832,7.307,7.065,8.076,7.07,8.996c-0.003,0.933,0.764,1.699,1.696,1.696
						c0.92,0.005,1.688-0.762,1.687-1.696C10.458,8.074,9.688,7.305,8.767,7.31z"/>
				</defs>
				<clipPath id="SVGID_2_">
					<use xlink:href="#SVGID_151_"  overflow="visible"/>
				</clipPath>
				<g clip-path="url(#SVGID_2_)" enable-background="new    ">
					<path fill="#563738" d="M8.767,7.31c0-2.761,0-5,0-5c3.689,0,6.687,2.997,6.687,6.687c0,3.699-2.997,6.696-6.687,6.696
						c-3.699,0-6.696-2.997-6.696-6.696c0-3.689,2.997-6.687,6.696-6.687C8.767,2.31,8.767,4.549,8.767,7.31
						C7.832,7.307,7.065,8.076,7.07,8.996c-0.003,0.933,0.764,1.699,1.696,1.696c0.92,0.005,1.688-0.762,1.687-1.696
						C10.458,8.074,9.688,7.305,8.767,7.31"/>
					<path fill="#563738" d="M8.767,6.292C8.731,6.41,8.553,6.518,8.55,6.641C8.547,6.767,8.667,6.924,8.767,7.003
						c0,0.102,0,0.203,0,0.307C7.832,7.307,7.065,8.076,7.07,8.996c-0.003,0.933,0.764,1.699,1.696,1.696
						c0.92,0.005,1.688-0.762,1.687-1.696c0.005-0.922-0.766-1.691-1.687-1.687c0-0.104,0-0.205,0-0.307
						C8.814,7.01,8.879,7.019,8.928,7.025c1.049,0.365,1.585,0.974,1.793,2.034c0.088,0.446,0.361,0.519,0.364,0.519
						c0.405,0.028,1.344-1.095,0.814-2.341C11.078,5.306,8.929,5.96,8.767,6.292c0-2.273,0-3.982,0-3.982
						c3.689,0,6.687,2.997,6.687,6.687c0,3.699-2.997,6.696-6.687,6.696c-3.699,0-6.696-2.997-6.696-6.696
						c0-3.689,2.997-6.687,6.696-6.687C8.767,2.31,8.767,4.019,8.767,6.292"/>
					<path fill="#3A1219" d="M8.767,6.066c-0.161,0.322-0.82,0.572-0.492,0.96C8.407,7.184,8.605,7.11,8.767,7.165
						c0,0.048,0,0.096,0,0.145C7.832,7.307,7.065,8.076,7.07,8.996c-0.003,0.933,0.764,1.699,1.696,1.696
						c0.92,0.005,1.688-0.762,1.687-1.696c0.005-0.922-0.766-1.691-1.687-1.687c0-0.049,0-0.097,0-0.145
						C8.811,7.17,8.87,7.175,8.915,7.179c1.62,0.388,1.664,1.736,1.681,2.243c0.004,0.115-0.04,0.294,0.033,0.383
						c0.354,0.436,1.488-0.39,1.634-1.608C12.596,5.406,9.084,5.432,8.767,6.066c0-2.16,0-3.757,0-3.757
						c3.689,0,6.687,2.997,6.687,6.687c0,3.699-2.997,6.696-6.687,6.696c-3.699,0-6.696-2.997-6.696-6.696
						c0-3.689,2.997-6.687,6.696-6.687C8.767,2.31,8.767,3.906,8.767,6.066"/>
					<path fill="#3A1219" d="M8.767,5.787C8.727,5.86,8.604,5.894,8.533,5.938C8.276,6.104,8.276,6.104,7.212,8.252
						C7.011,8.657,7.05,9.066,7.064,9.22c0.086,0.906,1.051,1.731,2.166,1.438l2.218-0.688c0.64-0.41,0.916-1.029,1.099-1.44
						c0.444-0.995,0.181-2.391-1.029-3.001C10.299,4.914,8.854,5.627,8.767,5.787c0-2.017,0-3.478,0-3.478
						c3.689,0,6.687,2.997,6.687,6.687c0,3.699-2.997,6.696-6.687,6.696c-3.699,0-6.696-2.997-6.696-6.696
						c0-3.689,2.997-6.687,6.696-6.687C8.767,2.31,8.767,3.771,8.767,5.787"/>
					<path fill="#3A1219" d="M8.767,5.351c-0.095,0.182-0.303,0.218-0.44,0.346C7.813,6.171,7.574,6.636,7.394,7.068
						C7.039,7.915,6.673,8.79,6.992,9.591c0.788,1.976,3.014,1.244,3.852,0.969c2.996-0.983,3.174-4.477,0.929-5.543
						C10.037,4.192,8.773,5.336,8.767,5.351c0-1.788,0-3.041,0-3.041c3.689,0,6.687,2.997,6.687,6.687
						c0,3.699-2.997,6.696-6.687,6.696c-3.699,0-6.696-2.997-6.696-6.696c0-3.689,2.997-6.687,6.696-6.687
						C8.767,2.31,8.767,3.563,8.767,5.351"/>
					<path fill="#3A1219" d="M8.767,4.719c-0.183,0.343-0.579,0.45-0.814,0.735c-0.313,0.381-0.387,0.52-0.7,1.106
						C7.229,6.604,7.024,7.104,7.022,7.109C6.462,8.547,6.73,9.313,6.846,9.64c0.482,1.371,2.125,1.874,4.09,1.251
						c4.158-1.319,3.268-5.193,0.938-6.36C10.291,3.738,8.806,4.645,8.767,4.719c0-1.444,0-2.409,0-2.409
						c3.689,0,6.687,2.997,6.687,6.687c0,3.699-2.997,6.696-6.687,6.696c-3.699,0-6.696-2.997-6.696-6.696
						c0-3.689,2.997-6.687,6.696-6.687C8.767,2.31,8.767,3.274,8.767,4.719"/>
					<path fill="#3A1219" d="M8.767,4.165C8.738,4.214,8.652,4.229,8.603,4.257c-1.099,0.618-1.592,1.816-1.754,2.21
						c-0.35,0.849-0.587,2.161-0.282,3.039c0.865,2.489,3.785,1.958,4.659,1.736c3.896-0.99,3.667-5.332,1.202-6.878
						C10.48,3.142,8.775,4.149,8.767,4.165c0-1.132,0-1.855,0-1.855c3.689,0,6.687,2.997,6.687,6.687
						c0,3.699-2.997,6.696-6.687,6.696c-3.699,0-6.696-2.997-6.696-6.696c0-3.689,2.997-6.687,6.696-6.687
						C8.767,2.31,8.767,3.033,8.767,4.165"/>
					<path fill="#3A1219" d="M8.767,3.661C8.723,3.73,8.594,3.744,8.52,3.779C8.216,3.927,7.176,4.523,6.541,6.048
						C6.312,6.601,5.829,8.05,6.311,9.565c0.644,2.021,3.006,2.594,5.006,2.113c4.039-0.969,4.306-5.605,1.327-7.587
						C10.582,2.72,8.776,3.646,8.767,3.661c0-0.839,0-1.352,0-1.352c3.689,0,6.687,2.997,6.687,6.687
						c0,3.699-2.997,6.696-6.687,6.696c-3.699,0-6.696-2.997-6.696-6.696c0-3.689,2.997-6.687,6.696-6.687
						C8.767,2.31,8.767,2.822,8.767,3.661"/>
					<path fill="#3A1219" d="M8.767,3.191c-0.066,0.1-0.259,0.105-0.369,0.15C8.171,3.434,7.003,3.977,6.243,5.623
						C5.986,6.18,5.44,7.658,5.914,9.371c0.652,2.354,3.176,3.177,5.332,2.773c4.537-0.85,4.807-6.134,1.418-8.358
						C10.517,2.376,8.775,3.178,8.767,3.191c0-0.557,0-0.882,0-0.882c3.689,0,6.687,2.997,6.687,6.687
						c0,3.699-2.997,6.696-6.687,6.696c-3.699,0-6.696-2.997-6.696-6.696c0-3.689,2.997-6.687,6.696-6.687
						C8.767,2.31,8.767,2.635,8.767,3.191"/>
					<path fill="#3A1219" d="M8.767,2.77C8.719,2.834,8.587,2.821,8.51,2.844c-0.485,0.14-1.709,0.649-2.584,2.351
						c-0.222,0.433-0.909,1.995-0.44,3.963c0.664,2.788,3.384,3.753,5.629,3.47c4.926-0.622,5.367-6.187,1.786-8.86
						C10.697,2.121,8.776,2.756,8.767,2.77c0-0.295,0-0.46,0-0.46c3.689,0,6.687,2.997,6.687,6.687c0,3.699-2.997,6.696-6.687,6.696
						c-3.699,0-6.696-2.997-6.696-6.696c0-3.689,2.997-6.687,6.696-6.687C8.767,2.31,8.767,2.475,8.767,2.77"/>
					<path fill="#3A1219" d="M8.767,2.44C8.703,2.516,8.539,2.479,8.441,2.496C7.773,2.61,6.508,3.063,5.533,4.808
						C5.225,5.361,4.558,6.889,5.04,9.111c0.56,2.573,3.16,4.305,6.051,4.026c2.513-0.241,4.802-1.996,4.249-5.372
						c0.074,0.399,0.113,0.811,0.113,1.23c0,3.699-2.997,6.696-6.687,6.696c-3.699,0-6.696-2.997-6.696-6.696
						c0-3.689,2.997-6.687,6.696-6.687C8.767,2.31,8.767,2.354,8.767,2.44"/>
					<path fill="#3A1219" d="M8.103,2.347C3.677,3,2.837,9.688,6.819,12.571c2.683,1.942,7.553,1.737,8.489-2.183
						c-0.641,3.03-3.329,5.304-6.542,5.304c-3.699,0-6.696-2.997-6.696-6.696c0-3.594,2.844-6.531,6.41-6.681
						C8.367,2.325,8.216,2.334,8.103,2.347"/>
					<path fill="#634546" d="M10.949,9.105c-0.053-0.07-0.131-0.198-0.201-0.403c-0.161-0.471-0.381-0.782-0.537-0.96
						C9.971,7.469,9.679,7.243,9.344,7.07C9.165,6.979,8.777,6.633,8.777,6.631c-0.001-0.005,0.29-0.532,1.122-0.58
						c0.325-0.019,0.896,0.146,1.253,0.445c0.666,0.559,0.735,1.217,0.729,1.663c-0.008,0.601-0.52,1.201-0.768,1.136
						C11.041,9.275,10.995,9.166,10.949,9.105"/>
					<path fill="#6D5252" d="M11.036,8.884c-0.269-0.377-0.443-0.813-0.745-1.169c-0.188-0.223-0.389-0.384-0.427-0.414
						c-0.656-0.518-0.713-0.62-0.715-0.64c-0.032-0.376,1.019-0.805,1.897-0.055c0.64,0.547,0.696,1.209,0.701,1.336
						c0.021,0.562-0.31,1.137-0.61,1.062C11.092,8.992,11.064,8.922,11.036,8.884"/>
					<path fill="#775D5D" d="M11.063,8.655c-0.242-0.326-0.439-0.686-0.704-0.997c-0.05-0.058-0.1-0.115-0.153-0.17
						C9.945,7.221,9.8,7.097,9.799,7.095c-0.164-0.138-0.38-0.363-0.381-0.373c-0.013-0.1,0.073-0.235,0.151-0.298
						c0.005-0.004,0.641-0.323,1.399,0.265c0.495,0.385,0.68,1.018,0.648,1.323c-0.058,0.565-0.222,0.798-0.501,0.711
						C11.092,8.715,11.078,8.676,11.063,8.655"/>
					<path fill="#7F6767" d="M11.066,8.441c-0.006-0.001-0.009-0.01-0.012-0.015c-0.166-0.223-0.328-0.449-0.496-0.671
						c-0.036-0.049-0.089-0.111-0.129-0.158c-0.039-0.046-0.092-0.108-0.134-0.153c-0.042-0.044-0.097-0.105-0.14-0.149
						c-0.008-0.008-0.019-0.018-0.026-0.025L9.695,6.825c-0.02-0.099,0.037-0.251,0.116-0.313c0.004-0.003,0.548-0.232,1.253,0.42
						c0.02,0.019,0.486,0.458,0.401,1.11c-0.006,0.046-0.063,0.315-0.078,0.328C11.313,8.436,11.159,8.475,11.066,8.441"/>
					<path fill="#877171" d="M11.285,8.107c-0.098,0.007-0.235,0.05-0.323,0.009c-0.085-0.039-0.134-0.171-0.19-0.244
						c-0.039-0.052-0.093-0.12-0.135-0.17c-0.041-0.049-0.093-0.117-0.135-0.164c-0.043-0.048-0.097-0.113-0.14-0.161
						c-0.007-0.008-0.018-0.019-0.025-0.026c-0.036-0.039-0.082-0.093-0.118-0.133c-0.045-0.048-0.103-0.114-0.149-0.161
						c-0.024-0.023-0.067-0.049-0.075-0.08C9.967,6.876,9.981,6.7,10.064,6.638c0.029-0.021,0.599,0.011,0.941,0.413
						c0.45,0.527,0.307,1.044,0.305,1.047C11.305,8.104,11.293,8.105,11.285,8.107"/>
					<path fill="#3A1219" d="M10.695,2.595C10.001,2.426,9.584,2.355,8.767,2.44c0-0.086,0-0.131,0-0.131
						c0.806,0,1.577,0.143,2.293,0.404C10.95,2.678,10.807,2.626,10.695,2.595"/>
					<path fill="#8F7B7B" d="M10.927,7.736c-0.081-0.028-0.272-0.096-0.43-0.348c-0.177-0.284-0.136-0.562-0.136-0.562
						c0.041-0.029,0.397,0.166,0.529,0.323c0.296,0.348,0.281,0.63,0.279,0.631C11.117,7.833,10.997,7.761,10.927,7.736"/>
				</g>
			</g>
			<g>
				<path fill="#3A1219" d="M8.767,7.31c0.921-0.005,1.691,0.765,1.687,1.687c0.002,0.935-0.767,1.701-1.687,1.696
					C7.834,10.695,7.067,9.929,7.07,8.996C7.065,8.076,7.832,7.307,8.767,7.31z"/>
			</g>
		</g>
	</g>
</g>
</svg>
