<?xml version="1.0" encoding="utf-8"?>
<!-- Generator: Adobe Illustrator 16.0.3, SVG Export Plug-In . SVG Version: 6.00 Build 0)  -->
<!DOCTYPE svg PUBLIC "-//W3C//DTD SVG 1.1//EN" "http://www.w3.org/Graphics/SVG/1.1/DTD/svg11.dtd">
<svg version="1.1" id="Layer_1" xmlns="http://www.w3.org/2000/svg" xmlns:xlink="http://www.w3.org/1999/xlink" x="0px" y="0px"
	 width="25.92px" height="25.92px" viewBox="0 0 25.92 25.92" enable-background="new 0 0 25.92 25.92" xml:space="preserve">
<g>
	<path fill-rule="evenodd" clip-rule="evenodd" fill="#ED1C24" d="M12.983,24.514C6.755,24.508,1.602,19.333,1.628,13.112
		C1.654,6.996,7.108,1.65,13.319,1.654c6.317,0.005,11.351,5.009,11.306,11.24C24.581,19.186,19.236,24.52,12.983,24.514z
		 M13.278,3.869c-0.359,0-0.72,0-1.079,0c-1.907,0.008-2.289,0.378-2.142,2.244c0.213,2.709,0.49,5.413,0.708,8.122
		c0.15,1.868,0.582,2.298,2.445,2.29c1.78-0.008,2.288-0.529,2.426-2.367c0.172-2.312,0.352-4.623,0.596-6.928
		C16.572,4.011,16.475,3.872,13.278,3.869z M13.118,22.095c1.16,0.011,2.238-1.074,2.215-2.229c-0.021-1.08-1.022-2.073-2.094-2.077
		c-1.135-0.005-2.15,0.979-2.191,2.121C11.006,21.082,11.955,22.084,13.118,22.095z"/>
</g>
</svg>
