<?xml version="1.0" encoding="utf-8"?>
<!-- Generator: Adobe Illustrator 16.0.3, SVG Export Plug-In . SVG Version: 6.00 Build 0)  -->
<!DOCTYPE svg PUBLIC "-//W3C//DTD SVG 1.1//EN" "http://www.w3.org/Graphics/SVG/1.1/DTD/svg11.dtd">
<svg version="1.1" id="Layer_1" xmlns="http://www.w3.org/2000/svg" xmlns:xlink="http://www.w3.org/1999/xlink" x="0px" y="0px"
	 width="85.628px" height="106.643px" viewBox="0 0 85.628 106.643" enable-background="new 0 0 85.628 106.643"
	 xml:space="preserve">
<g>
	<rect x="1.656" y="3.045" fill="#979797" width="82.32" height="100.547"/>
	<g>
		<g>
			<g enable-background="new    ">
				<g enable-background="new    ">
					<g>
						<g>
							<path fill="none" d="M6.037,100.246l0.912-1.02c0.004,0.322,0.25,0.586,0.523,0.586l-0.914,1.02
								C6.285,100.832,6.039,100.57,6.037,100.246z"/>
							<g enable-background="new    ">
								<path fill="#383938" d="M6.037,100.246l0.912-1.02c0,0.018,0.002,0.023,0.002,0.033l-0.914,1.021
									C6.037,100.27,6.037,100.258,6.037,100.246"/>
								<path fill="#3A3B3B" d="M6.039,100.283l0.914-1.021c0,0.021,0.002,0.045,0.006,0.064l-0.914,1.018
									C6.041,100.324,6.039,100.305,6.039,100.283"/>
								<path fill="#3D3D3D" d="M6.045,100.348l0.914-1.02c0.004,0.021,0.01,0.049,0.016,0.074l-0.914,1.018
									C6.055,100.395,6.049,100.371,6.045,100.348"/>
								<path fill="#3F3F3F" d="M6.061,100.42l0.914-1.021c0.01,0.033,0.023,0.066,0.037,0.102l-0.914,1.018
									C6.084,100.482,6.072,100.451,6.061,100.42"/>
								<path fill="#414141" d="M6.098,100.514l0.914-1.02c0.039,0.084,0.096,0.146,0.164,0.209l-0.914,1.02
									C6.193,100.666,6.137,100.596,6.098,100.514"/>
								<path fill="#3F3F3F" d="M6.262,100.723l0.914-1.02c0.025,0.021,0.053,0.037,0.082,0.053l-0.914,1.02
									C6.314,100.76,6.287,100.74,6.262,100.723"/>
								<path fill="#3D3D3D" d="M6.342,100.775l0.916-1.02c0.02,0.012,0.043,0.021,0.064,0.027l-0.916,1.018
									C6.385,100.797,6.365,100.787,6.342,100.775"/>
								<path fill="#3A3B3B" d="M6.406,100.803l0.916-1.016c0.021,0.006,0.031,0.012,0.061,0.02l-0.914,1.02
									C6.447,100.818,6.426,100.811,6.406,100.803"/>
								<path fill="#383938" d="M6.465,100.82l0.912-1.021c0.02,0.008,0.037,0.01,0.057,0.012l-0.914,1.02
									C6.5,100.828,6.482,100.824,6.465,100.82"/>
								<path fill="#373737" d="M6.52,100.83l0.914-1.021c0.021,0,0.033,0.004,0.051,0.004l-0.914,1.02
									C6.553,100.832,6.535,100.832,6.52,100.83"/>
							</g>
						</g>
					</g>
				</g>
				<g>
					<polygon fill="#373636" points="6.568,100.832 7.484,99.816 79.861,99.67 78.947,100.688 					"/>
				</g>
				<g enable-background="new    ">
					<g>
						<g>
							<path fill="none" d="M80.207,99.516l-0.912,1.02c-0.068,0.07-0.189,0.146-0.352,0.146l0.906-1.016
								C80.023,99.67,80.141,99.59,80.207,99.516z"/>
							<g enable-background="new    ">
								<polyline fill="#373737" points="78.947,100.688 79.861,99.67 79.865,99.67 78.951,100.688 78.947,100.688 								"/>
								<path fill="#353635" d="M78.951,100.688l0.908-1.02c0.021,0,0.043,0,0.063-0.004l-0.912,1.02
									C78.992,100.686,78.971,100.688,78.951,100.688"/>
								<path fill="#333333" d="M79.01,100.684l0.916-1.02c0.02-0.002,0.041-0.006,0.059-0.01l-0.904,1.016
									C79.051,100.674,79.031,100.68,79.01,100.684"/>
								<path fill="#313131" d="M79.072,100.67l0.912-1.016c0.025-0.014,0.055-0.021,0.068-0.025l-0.914,1.018
									C79.117,100.654,79.094,100.664,79.072,100.67"/>
								<path fill="#302F2F" d="M79.139,100.646l0.914-1.018c0.066-0.027,0.117-0.072,0.154-0.113l-0.912,1.02
									C79.256,100.574,79.205,100.615,79.139,100.646"/>
							</g>
						</g>
					</g>
				</g>
				<g enable-background="new    ">
					<g>
						<g>
							<path fill="none" d="M84.713,100.088l0.914-1.016c0.021,1.705-0.572,3.305-1.65,4.52l-0.914,1.018
								C84.141,103.396,84.732,101.797,84.713,100.088z"/>
							<g enable-background="new    ">
								<path fill="#383938" d="M84.713,100.088l0.914-1.016c0,0.105,0,0.225-0.004,0.338l-0.914,1.016
									C84.713,100.314,84.713,100.203,84.713,100.088"/>
								<path fill="#373737" d="M84.709,100.43l0.914-1.02c-0.016,0.221-0.027,0.438-0.063,0.664l-0.912,1.014
									C84.682,100.871,84.701,100.65,84.709,100.43"/>
								<path fill="#353635" d="M84.652,101.09l0.914-1.016c-0.02,0.225-0.063,0.443-0.113,0.67l-0.916,1.016
									C84.584,101.541,84.623,101.318,84.652,101.09"/>
								<path fill="#333333" d="M84.531,101.76l0.908-1.016c-0.059,0.234-0.127,0.479-0.211,0.713l-0.908,1.016
									C84.406,102.24,84.475,102.004,84.531,101.76"/>
								<path fill="#313131" d="M84.322,102.473l0.912-1.016c-0.1,0.283-0.221,0.563-0.354,0.83l-0.914,1.018
									C84.098,103.035,84.221,102.758,84.322,102.473"/>
								<path fill="#302F2F" d="M83.959,103.305l0.914-1.018c-0.244,0.469-0.547,0.906-0.898,1.305l-0.914,1.018
									C83.414,104.211,83.715,103.773,83.959,103.305"/>
							</g>
						</g>
					</g>
				</g>
				<g>
					<polygon fill="#3A3A39" points="5.248,7.555 6.162,6.539 6.951,99.23 6.037,100.246 					"/>
				</g>
				<g enable-background="new    ">
					<g>
						<g>
							<path fill="none" d="M5.396,7.146l0.914-1.018C6.248,6.213,6.164,6.35,6.164,6.539L5.25,7.555
								C5.246,7.367,5.33,7.23,5.396,7.146z"/>
							<g enable-background="new    ">
								<path fill="#302F2F" d="M5.396,7.146l0.914-1.018C6.289,6.16,6.258,6.201,6.232,6.25L5.316,7.268
									C5.344,7.217,5.371,7.18,5.396,7.146"/>
								<path fill="#313131" d="M5.318,7.266l0.914-1.018c-0.012,0.021-0.02,0.051-0.033,0.08l-0.904,1.02
									C5.293,7.318,5.305,7.289,5.318,7.266"/>
								<path fill="#333333" d="M5.283,7.348L6.191,6.33C6.178,6.352,6.172,6.371,6.17,6.393L5.256,7.414
									C5.268,7.389,5.275,7.367,5.283,7.348"/>
								<path fill="#353635" d="M5.264,7.41l0.914-1.02C6.174,6.41,6.17,6.428,6.166,6.453L5.254,7.471
									C5.256,7.449,5.26,7.432,5.264,7.41"/>
								<path fill="#373737" d="M5.254,7.471l0.912-1.018C6.164,6.471,6.162,6.49,6.162,6.512L5.248,7.529
									C5.248,7.508,5.25,7.488,5.254,7.471"/>
								<path fill="#383938" d="M5.248,7.527l0.914-1.02c0,0.01,0,0.02,0,0.025l-0.914,1.02C5.248,7.545,5.248,7.537,5.248,7.527"/>
							</g>
						</g>
					</g>
				</g>
				<g enable-background="new    ">
					<g>
						<g>
							<path fill="none" d="M1.656,3.045l0.916-1.018c1.07-1.219,2.521-1.889,4.061-1.889l-0.916,1.02
								C4.174,1.162,2.734,1.832,1.656,3.045z"/>
							<g enable-background="new    ">
								<path fill="#302F2F" d="M1.656,3.045l0.916-1.018c0.561-0.633,1.209-1.109,1.93-1.436L3.586,1.613
									C2.867,1.938,2.213,2.42,1.656,3.045"/>
								<path fill="#313131" d="M3.582,1.617l0.914-1.02C4.75,0.482,5.014,0.391,5.283,0.326L4.369,1.342
									C4.1,1.41,3.838,1.504,3.582,1.617"/>
								<path fill="#333333" d="M4.369,1.338l0.914-1.016c0.221-0.064,0.438-0.105,0.674-0.141L5.043,1.203
									C4.816,1.236,4.59,1.279,4.369,1.338"/>
								<path fill="#353635" d="M5.043,1.205l0.914-1.02c0.209-0.021,0.42-0.041,0.635-0.045L5.678,1.162
									C5.463,1.164,5.252,1.18,5.043,1.205"/>
								<path fill="#373737" d="M5.676,1.162l0.914-1.02c0.014,0,0.021,0,0.037,0l-0.914,1.02C5.701,1.162,5.689,1.162,5.676,1.162"
									/>
							</g>
						</g>
					</g>
				</g>
				<g>
					<polygon fill="#373636" points="5.713,1.162 6.629,0.146 79.016,0 78.102,1.018 					"/>
				</g>
				<g>
					<polygon fill="#3A3A39" points="83.922,7.396 84.838,6.381 85.627,99.072 84.713,100.088 					"/>
				</g>
				<g enable-background="new    ">
					<g>
						<g>
							<path fill="none" d="M78.102,1.018L79.016,0c3.189,0,5.789,2.865,5.822,6.379l-0.916,1.02
								C83.889,3.881,81.283,1.018,78.102,1.018z"/>
							<g enable-background="new    ">
								<path fill="#373737" d="M78.102,1.018L79.016,0c0.195,0,0.396,0.01,0.578,0.031L78.68,1.047
									C78.49,1.027,78.297,1.018,78.102,1.018"/>
								<path fill="#383938" d="M78.68,1.049l0.914-1.018c0.207,0.021,0.408,0.057,0.609,0.105l-0.914,1.018
									C79.09,1.107,78.885,1.07,78.68,1.049"/>
								<path fill="#3A3B3B" d="M79.289,1.152l0.914-1.02c0.213,0.051,0.422,0.113,0.625,0.189l-0.912,1.016
									C79.711,1.264,79.502,1.203,79.289,1.152"/>
								<path fill="#3D3D3D" d="M79.916,1.338l0.912-1.016c0.232,0.086,0.477,0.188,0.697,0.313l-0.914,1.018
									C80.391,1.533,80.156,1.428,79.916,1.338"/>
								<path fill="#3F3F3F" d="M80.615,1.652l0.904-1.02c0.313,0.166,0.604,0.361,0.889,0.582l-0.914,1.018
									C81.219,2.014,80.926,1.818,80.615,1.652"/>
								<path fill="#414141" d="M81.496,2.232l0.914-1.018c0.729,0.584,1.332,1.348,1.754,2.23l-0.912,1.02
									C82.828,3.58,82.225,2.816,81.496,2.232"/>
								<path fill="#3F3F3F" d="M83.25,4.465l0.912-1.02c0.146,0.324,0.291,0.678,0.395,1.031l-0.912,1.02
									C83.541,5.141,83.406,4.795,83.25,4.465"/>
								<path fill="#3D3D3D" d="M83.645,5.498l0.912-1.02c0.076,0.268,0.137,0.529,0.189,0.811l-0.914,1.018
									C83.783,6.029,83.721,5.764,83.645,5.498"/>
								<path fill="#3A3B3B" d="M83.828,6.307l0.912-1.02c0.029,0.23,0.063,0.479,0.078,0.721l-0.908,1.02
									C83.895,6.781,83.867,6.541,83.828,6.307"/>
								<path fill="#383938" d="M83.91,7.027l0.912-1.02c0.01,0.121,0.014,0.246,0.016,0.371l-0.916,1.018
									C83.922,7.273,83.918,7.146,83.91,7.027"/>
							</g>
						</g>
					</g>
				</g>
				<g>
					<path fill="#4C4C4C" d="M83.922,7.396l0.791,92.691c0.02,1.705-0.572,3.309-1.65,4.52c-1.076,1.219-2.52,1.889-4.063,1.889
						l-72.379,0.146c-3.191,0-5.803-2.855-5.822-6.383L0,7.57c-0.016-1.689,0.563-3.305,1.66-4.52
						c1.072-1.213,2.518-1.883,4.057-1.883l72.387-0.146C81.283,1.018,83.889,3.881,83.922,7.396z M79.314,100.508
						c0.076-0.082,0.16-0.209,0.158-0.406L78.674,7.412c-0.002-0.313-0.24-0.574-0.523-0.574L5.764,6.984
						c-0.17,0-0.293,0.102-0.367,0.166C5.334,7.238,5.252,7.377,5.252,7.559l0.787,92.693c0.004,0.322,0.25,0.584,0.527,0.584
						l72.385-0.145C79.127,100.688,79.248,100.594,79.314,100.508"/>
				</g>
			</g>
		</g>
	</g>
</g>
</svg>
