<?xml version="1.0" encoding="utf-8"?>
<!-- Generator: Adobe Illustrator 16.0.3, SVG Export Plug-In . SVG Version: 6.00 Build 0)  -->
<!DOCTYPE svg PUBLIC "-//W3C//DTD SVG 1.1//EN" "http://www.w3.org/Graphics/SVG/1.1/DTD/svg11.dtd">
<svg version="1.1" id="Layer_1" xmlns="http://www.w3.org/2000/svg" xmlns:xlink="http://www.w3.org/1999/xlink" x="0px" y="0px"
	 width="18px" height="18px" viewBox="0 0 18 18" enable-background="new 0 0 18 18" xml:space="preserve">
<g>
	<g>
		<g enable-background="new    ">
			<g enable-background="new    ">
				<defs>
					<path id="SVGID_170_" enable-background="new    " d="M9.162,7.31c0-2.761,0-5,0-5c3.699,0,6.696,2.997,6.696,6.687
						c0,3.699-2.997,6.696-6.696,6.696s-6.687-2.997-6.687-6.696c0-3.689,2.987-6.687,6.687-6.687
						C9.162,2.31,9.162,4.549,9.162,7.31C8.232,7.308,7.473,8.07,7.476,8.996c-0.001,0.939,0.758,1.699,1.687,1.696
						c0.933,0.003,1.699-0.764,1.696-1.696C10.863,8.076,10.097,7.307,9.162,7.31z"/>
				</defs>
				<clipPath id="SVGID_2_">
					<use xlink:href="#SVGID_170_"  overflow="visible"/>
				</clipPath>
				<g clip-path="url(#SVGID_2_)" enable-background="new    ">
					<path fill="#4B6240" d="M9.162,7.31c0-2.761,0-5,0-5c3.699,0,6.696,2.997,6.696,6.687c0,3.699-2.997,6.696-6.696,6.696
						s-6.687-2.997-6.687-6.696c0-3.689,2.987-6.687,6.687-6.687C9.162,2.31,9.162,4.549,9.162,7.31
						C8.232,7.308,7.473,8.07,7.476,8.996c-0.001,0.939,0.758,1.699,1.687,1.696c0.933,0.003,1.699-0.764,1.696-1.696
						C10.863,8.076,10.097,7.307,9.162,7.31"/>
					<path fill="#4B6240" d="M9.162,6.294C9.127,6.411,8.95,6.518,8.946,6.641C8.943,6.767,9.063,6.924,9.162,7.003
						c0,0.102,0,0.203,0,0.307C8.232,7.308,7.473,8.07,7.476,8.996c-0.001,0.939,0.758,1.699,1.687,1.696
						c0.933,0.003,1.699-0.764,1.696-1.696c0.005-0.92-0.762-1.689-1.696-1.687c0-0.104,0-0.205,0-0.307
						C9.211,7.01,9.276,7.019,9.324,7.026c1.054,0.36,1.593,0.969,1.802,2.033c0.088,0.446,0.362,0.518,0.365,0.518
						c0.405,0.029,1.343-1.094,0.813-2.339C11.482,5.305,9.325,5.962,9.162,6.294c0-2.274,0-3.984,0-3.984
						c3.699,0,6.696,2.997,6.696,6.687c0,3.699-2.997,6.696-6.696,6.696s-6.687-2.997-6.687-6.696c0-3.689,2.987-6.687,6.687-6.687
						C9.162,2.31,9.162,4.02,9.162,6.294"/>
					<path fill="#234922" d="M9.162,6.067c-0.16,0.321-0.817,0.57-0.49,0.959c0.132,0.156,0.329,0.084,0.49,0.139
						c0,0.048,0,0.096,0,0.145C8.232,7.308,7.473,8.07,7.476,8.996c-0.001,0.939,0.758,1.699,1.687,1.696
						c0.933,0.003,1.699-0.764,1.696-1.696c0.005-0.92-0.762-1.689-1.696-1.687c0-0.049,0-0.097,0-0.145
						C9.207,7.17,9.267,7.175,9.312,7.18c1.628,0.385,1.673,1.734,1.689,2.242c0.004,0.115-0.039,0.293,0.033,0.383
						c0.355,0.435,1.488-0.391,1.634-1.607C13.003,5.398,9.48,5.43,9.162,6.067c0-2.16,0-3.758,0-3.758
						c3.699,0,6.696,2.997,6.696,6.687c0,3.699-2.997,6.696-6.696,6.696s-6.687-2.997-6.687-6.696c0-3.689,2.987-6.687,6.687-6.687
						C9.162,2.31,9.162,3.907,9.162,6.067"/>
					<path fill="#234922" d="M9.162,5.788c-0.04,0.073-0.163,0.105-0.233,0.15C8.674,6.104,8.674,6.104,7.616,8.249
						C7.415,8.657,7.455,9.067,7.47,9.222c0.087,0.902,1.051,1.727,2.162,1.436l2.223-0.688c0.637-0.408,0.903-1.005,1.098-1.439
						c0.445-0.995,0.182-2.39-1.028-2.999C10.698,4.914,9.25,5.627,9.162,5.788c0-2.018,0-3.479,0-3.479
						c3.699,0,6.696,2.997,6.696,6.687c0,3.699-2.997,6.696-6.696,6.696s-6.687-2.997-6.687-6.696c0-3.689,2.987-6.687,6.687-6.687
						C9.162,2.31,9.162,3.771,9.162,5.788"/>
					<path fill="#234922" d="M9.162,5.351C9.067,5.532,8.859,5.568,8.723,5.696c-0.481,0.446-0.718,0.87-0.926,1.369
						c-0.354,0.85-0.72,1.729-0.399,2.527c0.787,1.965,3.013,1.238,3.852,0.966c2.736-0.893,3.351-4.177,1.026-5.49
						C10.632,4.14,9.17,5.335,9.162,5.351c0-1.787,0-3.041,0-3.041c3.699,0,6.696,2.997,6.696,6.687
						c0,3.699-2.997,6.696-6.696,6.696s-6.687-2.997-6.687-6.696c0-3.689,2.987-6.687,6.687-6.687
						C9.162,2.31,9.162,3.563,9.162,5.351"/>
					<path fill="#234922" d="M9.162,4.719C9.006,5.013,8.661,5.09,8.456,5.328c-0.394,0.459-0.563,0.777-0.686,1.01
						C7.629,6.606,7.6,6.662,7.426,7.109c-0.56,1.442-0.28,2.234-0.175,2.532c0.481,1.366,2.125,1.867,4.089,1.247
						c4.168-1.315,3.274-5.188,0.938-6.355C10.69,3.738,9.201,4.645,9.162,4.719c0-1.444,0-2.409,0-2.409
						c3.699,0,6.696,2.997,6.696,6.687c0,3.699-2.997,6.696-6.696,6.696s-6.687-2.997-6.687-6.696c0-3.689,2.987-6.687,6.687-6.687
						C9.162,2.31,9.162,3.274,9.162,4.719"/>
					<path fill="#234922" d="M9.162,4.165C9.134,4.214,9.048,4.229,8.999,4.257c-1.096,0.616-1.587,1.815-1.748,2.21
						C6.902,7.317,6.666,8.631,6.972,9.508c0.866,2.483,3.784,1.954,4.658,1.732c3.9-0.99,3.669-5.33,1.201-6.876
						C10.879,3.142,9.171,4.149,9.162,4.165c0-1.132,0-1.855,0-1.855c3.699,0,6.696,2.997,6.696,6.687
						c0,3.699-2.997,6.696-6.696,6.696s-6.687-2.997-6.687-6.696c0-3.689,2.987-6.687,6.687-6.687
						C9.162,2.31,9.162,3.033,9.162,4.165"/>
					<path fill="#234922" d="M9.162,3.661C9.118,3.73,8.989,3.744,8.916,3.779C8.613,3.926,7.575,4.521,6.943,6.048
						c-0.229,0.554-0.711,2.005-0.228,3.52c0.644,2.017,3.005,2.587,5.005,2.109c4.045-0.968,4.312-5.603,1.326-7.585
						C10.98,2.72,9.172,3.646,9.162,3.661c0-0.839,0-1.352,0-1.352c3.699,0,6.696,2.997,6.696,6.687
						c0,3.699-2.997,6.696-6.696,6.696s-6.687-2.997-6.687-6.696c0-3.689,2.987-6.687,6.687-6.687
						C9.162,2.31,9.162,2.822,9.162,3.661"/>
					<path fill="#234922" d="M9.162,3.191c-0.066,0.1-0.258,0.105-0.368,0.15C8.567,3.434,7.402,3.976,6.646,5.62
						c-0.2,0.436-0.815,1.992-0.327,3.752c0.653,2.35,3.176,3.172,5.33,2.77c4.541-0.848,4.812-6.13,1.421-8.354
						C10.963,2.406,9.171,3.178,9.162,3.191c0-0.556,0-0.882,0-0.882c3.699,0,6.696,2.997,6.696,6.687
						c0,3.699-2.997,6.696-6.696,6.696s-6.687-2.997-6.687-6.696c0-3.689,2.987-6.687,6.687-6.687
						C9.162,2.31,9.162,2.636,9.162,3.191"/>
					<path fill="#234922" d="M9.162,2.77c-4.017,1.158-4.679,7.42-0.983,9.306c3.806,1.942,8.71-0.834,7.263-5.272
						C14.648,4.374,12.179,2.135,9.162,2.77c0-0.295,0-0.46,0-0.46c3.699,0,6.696,2.997,6.696,6.687
						c0,3.699-2.997,6.696-6.696,6.696s-6.687-2.997-6.687-6.696c0-3.689,2.987-6.687,6.687-6.687
						C9.162,2.31,9.162,2.475,9.162,2.77"/>
					<path fill="#234922" d="M9.162,2.44C9.099,2.516,8.935,2.479,8.837,2.496c-0.667,0.114-1.93,0.566-2.9,2.309
						C5.695,5.237,4.947,6.828,5.445,9.112c0.562,2.572,3.163,4.302,6.052,4.023c2.513-0.242,4.801-1.996,4.248-5.37
						c0.074,0.399,0.113,0.811,0.113,1.23c0,3.699-2.997,6.696-6.696,6.696s-6.687-2.997-6.687-6.696
						c0-3.689,2.987-6.687,6.687-6.687C9.162,2.31,9.162,2.354,9.162,2.44"/>
					<path fill="#234922" d="M8.498,2.347c-4.419,0.652-5.256,7.342-1.28,10.225c2.684,1.946,7.558,1.742,8.496-2.183
						c-0.641,3.03-3.33,5.304-6.552,5.304c-3.699,0-6.687-2.997-6.687-6.696c0-3.594,2.834-6.531,6.4-6.681
						C8.763,2.325,8.611,2.334,8.498,2.347"/>
					<path fill="#5B6E50" d="M11.354,9.105c-0.053-0.071-0.131-0.199-0.201-0.402c-0.123-0.366-0.314-0.707-0.537-0.96
						c-0.242-0.273-0.535-0.5-0.871-0.673C9.573,6.981,9.173,6.633,9.173,6.631c0-0.005,0.292-0.53,1.128-0.577
						c0.284-0.017,0.88,0.129,1.257,0.443c0.666,0.557,0.735,1.216,0.729,1.662c-0.009,0.602-0.521,1.202-0.769,1.136
						C11.446,9.275,11.399,9.166,11.354,9.105"/>
					<path fill="#68785C" d="M11.441,8.884c-0.269-0.377-0.442-0.813-0.745-1.168c-0.191-0.226-0.391-0.385-0.428-0.414
						c-0.692-0.541-0.72-0.639-0.72-0.64c-0.033-0.376,1.02-0.805,1.902-0.055c0.641,0.545,0.697,1.208,0.702,1.336
						c0.021,0.562-0.309,1.137-0.61,1.061C11.497,8.992,11.47,8.922,11.441,8.884"/>
					<path fill="#738167" d="M11.469,8.655c-0.243-0.326-0.44-0.685-0.705-0.996c-0.05-0.058-0.1-0.115-0.153-0.17
						c-0.256-0.264-0.406-0.393-0.408-0.394c-0.153-0.13-0.382-0.366-0.383-0.373c-0.013-0.1,0.074-0.235,0.152-0.298
						c0.006-0.004,0.656-0.313,1.401,0.265c0.496,0.385,0.681,1.017,0.649,1.323c-0.058,0.564-0.222,0.797-0.501,0.71
						C11.497,8.715,11.483,8.676,11.469,8.655"/>
					<path fill="#7D8972" d="M11.472,8.442c-0.006-0.002-0.009-0.011-0.012-0.015c-0.166-0.224-0.327-0.449-0.495-0.671
						c-0.037-0.049-0.09-0.111-0.129-0.157c-0.04-0.047-0.093-0.109-0.135-0.153c-0.043-0.045-0.098-0.106-0.141-0.15
						c-0.008-0.008-0.019-0.018-0.026-0.025l-0.436-0.446c-0.02-0.098,0.038-0.249,0.117-0.31c0.004-0.003,0.563-0.219,1.254,0.419
						c0.02,0.019,0.487,0.458,0.401,1.109c-0.006,0.047-0.063,0.315-0.078,0.328C11.719,8.436,11.564,8.475,11.472,8.442"/>
					<path fill="#87917C" d="M11.69,8.107c-0.097,0.007-0.235,0.051-0.323,0.01c-0.085-0.039-0.134-0.171-0.19-0.244
						c-0.039-0.052-0.092-0.12-0.135-0.17c-0.041-0.049-0.092-0.116-0.135-0.164s-0.097-0.113-0.14-0.16
						c-0.007-0.009-0.018-0.02-0.025-0.027c-0.036-0.039-0.083-0.093-0.119-0.132c-0.045-0.049-0.103-0.115-0.149-0.162
						c-0.023-0.022-0.066-0.048-0.075-0.079c-0.026-0.101-0.011-0.277,0.073-0.339c0.016-0.012,0.596,0.009,0.939,0.412
						c0.449,0.527,0.308,1.043,0.305,1.047C11.711,8.105,11.698,8.106,11.69,8.107"/>
					<path fill="#234922" d="M11.096,2.595C10.4,2.426,9.982,2.355,9.162,2.44c0-0.086,0-0.131,0-0.131
						c0.809,0,1.584,0.143,2.302,0.405C11.354,2.679,11.207,2.627,11.096,2.595"/>
					<path fill="#909986" d="M11.332,7.737c-0.074-0.026-0.272-0.096-0.429-0.348c-0.023-0.037-0.065-0.084-0.076-0.128
						c-0.05-0.208-0.098-0.404-0.061-0.433c0.041-0.029,0.397,0.166,0.529,0.322c0.296,0.348,0.281,0.63,0.28,0.631
						C11.522,7.834,11.402,7.762,11.332,7.737"/>
				</g>
			</g>
			<g>
				<path fill="#234922" d="M9.162,7.31c0.935-0.003,1.701,0.767,1.696,1.687c0.003,0.933-0.764,1.699-1.696,1.696
					c-0.929,0.003-1.688-0.757-1.687-1.696C7.473,8.07,8.232,7.308,9.162,7.31z"/>
			</g>
		</g>
	</g>
</g>
</svg>
